<svg width="182" height="30" viewBox="0 0 182 30" fill="none" xmlns="http://www.w3.org/2000/svg">
<path d="M1.41152 29.656C1.07019 29.656 0.795225 29.5517 0.586632 29.3431C0.397003 29.1535 0.302188 28.888 0.302188 28.5467V15.1209C0.321151 13.6418 0.671966 12.3144 1.35463 11.1387C2.05626 9.944 2.99493 9.00533 4.17063 8.32266C5.3653 7.64 6.70219 7.29866 8.1813 7.29866C9.69834 7.29866 11.0542 7.64948 12.2489 8.35111C13.4435 9.03378 14.3822 9.97244 15.0649 11.1671C15.7665 12.3618 16.1173 13.7176 16.1173 15.2347C16.1173 16.7327 15.776 18.0791 15.0933 19.2738C14.4296 20.4684 13.5194 21.4166 12.3626 22.1182C11.2059 22.8009 9.89745 23.1422 8.4373 23.1422C7.16678 23.1422 6.01004 22.8767 4.96708 22.3458C3.94308 21.7959 3.11819 21.0753 2.49241 20.184V28.5467C2.49241 28.888 2.38811 29.1535 2.17952 29.3431C1.98989 29.5517 1.73389 29.656 1.41152 29.656ZM8.1813 21.1511C9.28115 21.1511 10.2672 20.8951 11.1395 20.3831C12.0118 19.8711 12.6945 19.1695 13.1875 18.2782C13.6995 17.368 13.9555 16.3535 13.9555 15.2347C13.9555 14.0969 13.6995 13.0824 13.1875 12.1911C12.6945 11.2999 12.0118 10.5982 11.1395 10.0862C10.2672 9.55526 9.28115 9.28978 8.1813 9.28978C7.10041 9.28978 6.12382 9.55526 5.25152 10.0862C4.37923 10.5982 3.69656 11.2999 3.20352 12.1911C2.71048 13.0824 2.46397 14.0969 2.46397 15.2347C2.46397 16.3535 2.71048 17.368 3.20352 18.2782C3.69656 19.1695 4.37923 19.8711 5.25152 20.3831C6.12382 20.8951 7.10041 21.1511 8.1813 21.1511ZM26.8417 23.1422C25.3816 23.1422 24.0732 22.8009 22.9164 22.1182C21.7597 21.4166 20.84 20.4684 20.1573 19.2738C19.4936 18.0791 19.1617 16.7327 19.1617 15.2347C19.1617 13.7176 19.5031 12.3618 20.1857 11.1671C20.8874 9.97244 21.8355 9.03378 23.0302 8.35111C24.2249 7.64948 25.5712 7.29866 27.0693 7.29866C28.5674 7.29866 29.9043 7.64948 31.08 8.35111C32.2746 9.03378 33.2133 9.97244 33.896 11.1671C34.5976 12.3618 34.9579 13.7176 34.9769 15.2347L34.0951 15.9173C34.0951 17.2827 33.7727 18.5153 33.128 19.6151C32.5022 20.696 31.6394 21.5588 30.5395 22.2036C29.4586 22.8293 28.226 23.1422 26.8417 23.1422ZM27.0693 21.1511C28.1692 21.1511 29.1457 20.8951 29.9991 20.3831C30.8714 19.8711 31.554 19.1695 32.0471 18.2782C32.5591 17.368 32.8151 16.3535 32.8151 15.2347C32.8151 14.0969 32.5591 13.0824 32.0471 12.1911C31.554 11.2999 30.8714 10.5982 29.9991 10.0862C29.1457 9.55526 28.1692 9.28978 27.0693 9.28978C25.9884 9.28978 25.0118 9.55526 24.1395 10.0862C23.2672 10.5982 22.5751 11.2999 22.0631 12.1911C21.5511 13.0824 21.2951 14.0969 21.2951 15.2347C21.2951 16.3535 21.5511 17.368 22.0631 18.2782C22.5751 19.1695 23.2672 19.8711 24.1395 20.3831C25.0118 20.8951 25.9884 21.1511 27.0693 21.1511ZM33.8675 23C33.5452 23 33.2797 22.9052 33.0711 22.7156C32.8625 22.507 32.7582 22.2415 32.7582 21.9191V17.0551L33.2986 14.808L34.9769 15.2347V21.9191C34.9769 22.2415 34.8726 22.507 34.664 22.7156C34.4554 22.9052 34.1899 23 33.8675 23ZM44.8971 23C43.892 23 42.9913 22.763 42.1949 22.2889C41.4174 21.8148 40.8011 21.1701 40.346 20.3547C39.8909 19.5203 39.6633 18.5721 39.6633 17.5102V3.60089C39.6633 3.27852 39.7581 3.01303 39.9477 2.80444C40.1563 2.59585 40.4218 2.49155 40.7442 2.49155C41.0666 2.49155 41.332 2.59585 41.5406 2.80444C41.7492 3.01303 41.8535 3.27852 41.8535 3.60089V17.5102C41.8535 18.4773 42.138 19.2738 42.7069 19.8996C43.2757 20.5064 44.0058 20.8098 44.8971 20.8098H45.6651C45.9685 20.8098 46.215 20.9141 46.4046 21.1227C46.5943 21.3313 46.6891 21.5967 46.6891 21.9191C46.6891 22.2415 46.5753 22.507 46.3477 22.7156C46.1202 22.9052 45.8357 23 45.4944 23H44.8971ZM37.8144 9.91555C37.53 9.91555 37.2929 9.83022 37.1033 9.65955C36.9137 9.46992 36.8189 9.24237 36.8189 8.97689C36.8189 8.69244 36.9137 8.46489 37.1033 8.29422C37.2929 8.10459 37.53 8.00978 37.8144 8.00978H45.0677C45.3522 8.00978 45.5892 8.10459 45.7789 8.29422C45.9685 8.46489 46.0633 8.69244 46.0633 8.97689C46.0633 9.24237 45.9685 9.46992 45.7789 9.65955C45.5892 9.83022 45.3522 9.91555 45.0677 9.91555H37.8144ZM56.6829 23.1422C55.2227 23.1422 53.9143 22.8009 52.7575 22.1182C51.6008 21.4166 50.6811 20.4684 49.9984 19.2738C49.3347 18.0791 49.0029 16.7327 49.0029 15.2347C49.0029 13.7176 49.3442 12.3618 50.0269 11.1671C50.7285 9.97244 51.6766 9.03378 52.8713 8.35111C54.066 7.64948 55.4123 7.29866 56.9104 7.29866C58.4085 7.29866 59.7454 7.64948 60.9211 8.35111C62.1157 9.03378 63.0544 9.97244 63.7371 11.1671C64.4387 12.3618 64.799 13.7176 64.818 15.2347L63.9362 15.9173C63.9362 17.2827 63.6138 18.5153 62.9691 19.6151C62.3433 20.696 61.4805 21.5588 60.3806 22.2036C59.2997 22.8293 58.0672 23.1422 56.6829 23.1422ZM56.9104 21.1511C58.0103 21.1511 58.9869 20.8951 59.8402 20.3831C60.7125 19.8711 61.3952 19.1695 61.8882 18.2782C62.4002 17.368 62.6562 16.3535 62.6562 15.2347C62.6562 14.0969 62.4002 13.0824 61.8882 12.1911C61.3952 11.2999 60.7125 10.5982 59.8402 10.0862C58.9869 9.55526 58.0103 9.28978 56.9104 9.28978C55.8295 9.28978 54.8529 9.55526 53.9806 10.0862C53.1083 10.5982 52.4162 11.2999 51.9042 12.1911C51.3922 13.0824 51.1362 14.0969 51.1362 15.2347C51.1362 16.3535 51.3922 17.368 51.9042 18.2782C52.4162 19.1695 53.1083 19.8711 53.9806 20.3831C54.8529 20.8951 55.8295 21.1511 56.9104 21.1511ZM63.7086 23C63.3863 23 63.1208 22.9052 62.9122 22.7156C62.7036 22.507 62.5993 22.2415 62.5993 21.9191V17.0551L63.1397 14.808L64.818 15.2347V21.9191C64.818 22.2415 64.7137 22.507 64.5051 22.7156C64.2965 22.9052 64.031 23 63.7086 23ZM69.5613 13.4142C69.6182 12.2385 69.9216 11.1861 70.4715 10.2569C71.0404 9.3277 71.7705 8.59763 72.6617 8.06666C73.572 7.5357 74.577 7.27022 75.6769 7.27022C76.5492 7.27022 77.2223 7.39348 77.6964 7.64C78.1705 7.88652 78.3506 8.24681 78.2369 8.72089C78.161 9.00533 78.0283 9.19496 77.8386 9.28978C77.668 9.38459 77.4499 9.42252 77.1844 9.40355C76.9379 9.38459 76.6535 9.36563 76.3311 9.34667C75.2692 9.25185 74.321 9.36563 73.4866 9.688C72.6712 9.99141 72.017 10.4655 71.524 11.1102C71.0499 11.755 70.8129 12.523 70.8129 13.4142H69.5613ZM69.732 23C69.3906 23 69.1252 22.9052 68.9355 22.7156C68.7459 22.5259 68.6511 22.2604 68.6511 21.9191V8.52178C68.6511 8.18044 68.7459 7.91496 68.9355 7.72533C69.1252 7.5357 69.3906 7.44089 69.732 7.44089C70.0733 7.44089 70.3388 7.5357 70.5284 7.72533C70.718 7.91496 70.8129 8.18044 70.8129 8.52178V21.9191C70.8129 22.2604 70.718 22.5259 70.5284 22.7156C70.3388 22.9052 70.0733 23 69.732 23ZM78.0697 23.4551C77.6146 23.4551 77.2259 23.2939 76.9035 22.9716C76.5812 22.6492 76.42 22.2604 76.42 21.8053C76.42 21.3313 76.5812 20.933 76.9035 20.6107C77.2449 20.2883 77.6336 20.1271 78.0697 20.1271C78.5249 20.1271 78.9136 20.2978 79.236 20.6391C79.5583 20.9615 79.7195 21.3502 79.7195 21.8053C79.7195 22.2415 79.5583 22.6302 79.236 22.9716C78.9326 23.2939 78.5438 23.4551 78.0697 23.4551ZM90.0398 23.1707C88.6934 23.1707 87.4892 22.8957 86.4273 22.3458C85.3654 21.7769 84.5215 20.952 83.8958 19.8711C83.2889 18.7902 82.9855 17.4723 82.9855 15.9173V8.52178C82.9855 8.21837 83.0898 7.96237 83.2984 7.75378C83.507 7.54518 83.763 7.44089 84.0664 7.44089C84.3888 7.44089 84.6543 7.54518 84.8629 7.75378C85.0715 7.96237 85.1758 8.21837 85.1758 8.52178V15.9173C85.1758 17.093 85.3938 18.0601 85.83 18.8187C86.2851 19.5772 86.8919 20.1461 87.6504 20.5253C88.4279 20.9046 89.3002 21.0942 90.2673 21.0942C91.1965 21.0942 92.0309 20.9141 92.7704 20.5538C93.5289 20.1935 94.1263 19.7004 94.5624 19.0747C94.9986 18.4489 95.2166 17.7378 95.2166 16.9413H96.7811C96.7242 18.136 96.3923 19.2074 95.7855 20.1556C95.1977 21.0847 94.4012 21.8243 93.3962 22.3742C92.3912 22.9052 91.2723 23.1707 90.0398 23.1707ZM96.2975 23C95.9752 23 95.7097 22.9052 95.5011 22.7156C95.3115 22.507 95.2166 22.232 95.2166 21.8907V8.52178C95.2166 8.19941 95.3115 7.94341 95.5011 7.75378C95.7097 7.54518 95.9752 7.44089 96.2975 7.44089C96.6199 7.44089 96.8854 7.54518 97.094 7.75378C97.3026 7.94341 97.4069 8.19941 97.4069 8.52178V21.8907C97.4069 22.232 97.3026 22.507 97.094 22.7156C96.8854 22.9052 96.6199 23 96.2975 23ZM103.203 29.656C102.861 29.656 102.586 29.5517 102.378 29.3431C102.188 29.1535 102.093 28.888 102.093 28.5467V15.1209C102.112 13.6418 102.463 12.3144 103.146 11.1387C103.847 9.944 104.786 9.00533 105.962 8.32266C107.156 7.64 108.493 7.29866 109.972 7.29866C111.489 7.29866 112.845 7.64948 114.04 8.35111C115.235 9.03378 116.173 9.97244 116.856 11.1671C117.558 12.3618 117.908 13.7176 117.908 15.2347C117.908 16.7327 117.567 18.0791 116.884 19.2738C116.221 20.4684 115.31 21.4166 114.154 22.1182C112.997 22.8009 111.689 23.1422 110.228 23.1422C108.958 23.1422 107.801 22.8767 106.758 22.3458C105.734 21.7959 104.909 21.0753 104.284 20.184V28.5467C104.284 28.888 104.179 29.1535 103.971 29.3431C103.781 29.5517 103.525 29.656 103.203 29.656ZM109.972 21.1511C111.072 21.1511 112.058 20.8951 112.931 20.3831C113.803 19.8711 114.486 19.1695 114.979 18.2782C115.491 17.368 115.747 16.3535 115.747 15.2347C115.747 14.0969 115.491 13.0824 114.979 12.1911C114.486 11.2999 113.803 10.5982 112.931 10.0862C112.058 9.55526 111.072 9.28978 109.972 9.28978C108.892 9.28978 107.915 9.55526 107.043 10.0862C106.17 10.5982 105.488 11.2999 104.995 12.1911C104.502 13.0824 104.255 14.0969 104.255 15.2347C104.255 16.3535 104.502 17.368 104.995 18.2782C105.488 19.1695 106.17 19.8711 107.043 20.3831C107.915 20.8951 108.892 21.1511 109.972 21.1511ZM123.342 23C123.001 23 122.726 22.9052 122.517 22.7156C122.328 22.507 122.233 22.232 122.233 21.8907V8.55022C122.233 8.20889 122.328 7.94341 122.517 7.75378C122.726 7.54518 123.001 7.44089 123.342 7.44089C123.665 7.44089 123.921 7.54518 124.11 7.75378C124.319 7.94341 124.423 8.20889 124.423 8.55022V21.8907C124.423 22.232 124.319 22.507 124.11 22.7156C123.921 22.9052 123.665 23 123.342 23ZM123.314 4.48266C122.897 4.48266 122.536 4.33096 122.233 4.02755C121.929 3.72415 121.778 3.35437 121.778 2.91822C121.778 2.44415 121.929 2.07437 122.233 1.80889C122.555 1.52444 122.925 1.38222 123.342 1.38222C123.74 1.38222 124.091 1.52444 124.395 1.80889C124.717 2.07437 124.878 2.44415 124.878 2.91822C124.878 3.35437 124.726 3.72415 124.423 4.02755C124.12 4.33096 123.75 4.48266 123.314 4.48266ZM130.683 29.656C130.341 29.656 130.066 29.5517 129.858 29.3431C129.668 29.1535 129.573 28.888 129.573 28.5467V15.1209C129.592 13.6418 129.943 12.3144 130.626 11.1387C131.327 9.944 132.266 9.00533 133.442 8.32266C134.636 7.64 135.973 7.29866 137.452 7.29866C138.969 7.29866 140.325 7.64948 141.52 8.35111C142.715 9.03378 143.653 9.97244 144.336 11.1671C145.038 12.3618 145.388 13.7176 145.388 15.2347C145.388 16.7327 145.047 18.0791 144.364 19.2738C143.701 20.4684 142.79 21.4166 141.634 22.1182C140.477 22.8009 139.169 23.1422 137.708 23.1422C136.438 23.1422 135.281 22.8767 134.238 22.3458C133.214 21.7959 132.389 21.0753 131.764 20.184V28.5467C131.764 28.888 131.659 29.1535 131.451 29.3431C131.261 29.5517 131.005 29.656 130.683 29.656ZM137.452 21.1511C138.552 21.1511 139.538 20.8951 140.411 20.3831C141.283 19.8711 141.966 19.1695 142.459 18.2782C142.971 17.368 143.227 16.3535 143.227 15.2347C143.227 14.0969 142.971 13.0824 142.459 12.1911C141.966 11.2999 141.283 10.5982 140.411 10.0862C139.538 9.55526 138.552 9.28978 137.452 9.28978C136.372 9.28978 135.395 9.55526 134.523 10.0862C133.65 10.5982 132.968 11.2999 132.475 12.1911C131.982 13.0824 131.735 14.0969 131.735 15.2347C131.735 16.3535 131.982 17.368 132.475 18.2782C132.968 19.1695 133.65 19.8711 134.523 20.3831C135.395 20.8951 136.372 21.1511 137.452 21.1511ZM151.924 23C151.677 23 151.459 22.9336 151.27 22.8009C151.08 22.6681 150.947 22.4975 150.871 22.2889L146.434 8.97689C146.32 8.50281 146.33 8.13304 146.462 7.86755C146.595 7.58311 146.861 7.44089 147.259 7.44089C147.505 7.44089 147.723 7.50726 147.913 7.64C148.103 7.77274 148.245 7.98133 148.34 8.26578L152.294 20.3547H151.668L155.337 8.29422C155.413 8.0477 155.536 7.84859 155.707 7.69689C155.896 7.52622 156.134 7.44089 156.418 7.44089C156.702 7.44089 156.93 7.51674 157.101 7.66844C157.29 7.82015 157.423 8.02874 157.499 8.29422L160.998 20.0702H160.514L164.382 8.26578C164.572 7.71585 164.923 7.44089 165.435 7.44089C165.852 7.44089 166.136 7.60207 166.288 7.92444C166.44 8.22785 166.44 8.57867 166.288 8.97689L161.851 22.2889C161.775 22.4975 161.642 22.6681 161.453 22.8009C161.282 22.9336 161.073 23 160.827 23C160.58 23 160.353 22.9336 160.144 22.8009C159.955 22.6681 159.831 22.4975 159.774 22.2889L156.19 10.3991H156.532L152.948 22.2889C152.872 22.5164 152.739 22.6966 152.55 22.8293C152.36 22.9431 152.151 23 151.924 23ZM170.818 17.7947L169.481 16.344L179.209 7.55466C179.436 7.34607 179.673 7.25126 179.92 7.27022C180.166 7.27022 180.394 7.384 180.602 7.61155C180.811 7.83911 180.906 8.08563 180.887 8.35111C180.887 8.59763 180.773 8.8157 180.546 9.00533L170.818 17.7947ZM170.106 23C169.784 23 169.519 22.9052 169.31 22.7156C169.12 22.507 169.026 22.2415 169.026 21.9191V1.86578C169.026 1.5434 169.12 1.2874 169.31 1.09777C169.519 0.889183 169.784 0.784887 170.106 0.784887C170.429 0.784887 170.685 0.889183 170.874 1.09777C171.083 1.2874 171.187 1.5434 171.187 1.86578V21.9191C171.187 22.2415 171.083 22.507 170.874 22.7156C170.685 22.9052 170.429 23 170.106 23ZM180.631 22.8578C180.384 23.0664 180.128 23.1517 179.863 23.1138C179.597 23.0948 179.37 22.9621 179.18 22.7156L172.837 14.9218L174.373 13.5564L180.773 21.4356C180.963 21.6631 181.048 21.9096 181.029 22.1751C181.01 22.4216 180.877 22.6492 180.631 22.8578Z" fill="black"/>
</svg>
